<?xml version="1.0" encoding="UTF-8"?>
<svg version="1.1" xmlns="http://www.w3.org/2000/svg" width="32" height="32">
<path d="M0 0 C1.32 0 2.64 0 4 0 C4 6.27 4 12.54 4 19 C7.96 19 11.92 19 16 19 C15.08160162 23.59199188 14.65998007 24.89491863 11.9375 28.3125 C11.38964844 29.00988281 10.84179688 29.70726563 10.27734375 30.42578125 C9.85582031 30.94527344 9.43429688 31.46476562 9 32 C5.91729424 31.77165143 4.68566965 30.74008163 2.26953125 28.7421875 C-1.48107328 23.93578276 -0.52463511 17.90812958 -0.3125 12.125 C-0.28994141 10.9596875 -0.26738281 9.794375 -0.24414062 8.59375 C-0.18541297 5.72784055 -0.10332875 2.86459078 0 0 Z M4 23 C4 23.33 4 23.66 4 24 C5.98 24 7.96 24 10 24 C10 23.67 10 23.34 10 23 C8.02 23 6.04 23 4 23 Z " fill="#FB0000" transform="translate(8,0)"/>
</svg>
